name new_emg_signals
nRows=60
nColumns=7
 
endheader
time	LGLTMED	LRF	LADDLONG	LST	LTA	LGM
0.0	0.0790845915305589	0.3259373001646465	0.0033690898155315	0.1054039206612122	0.1139272909342307	0.1372530216364429
0.010000000000001563	0.0892713147817553	0.2927492177560853	0.0176335526656744	0.0890640632026369	0.0908937121993742	0.1177361587484192
0.019999999999999574	0.0995327304811059	0.2597284957315951	0.0386705106666241	0.0726184247764483	0.0678552559005746	0.0982930785367515
0.03000000000000469	0.1098629363517011	0.2268939716472881	0.0597292302989592	0.0560737369224131	0.044824403017438	0.0789347287864159
0.04000000000000625	0.1202560144472473	0.1942642146484176	0.0807971196189845	0.0394368037300541	0.0218136215149383	0.0596718848186142
0.050000000000007816	0.1307060437595804	0.161857499395999	0.1018615655012541	0.0227144952810136	0.001164648849419	0.0405151317490261
0.06000000000000938	0.1412071125905853	0.1296917806899563	0.1229099504341787	0.005913741221069	0.0240980115422344	0.0214748472706267
0.07000000000001094	0.1517533306122341	0.0977846688545392	0.1439296691885856	0.0109584755156668	0.0469741280581519	0.0025611850259472
0.0800000000000125	0.1623388405490781	0.0661534059469632	0.1649081453130361	0.0278951248120489	0.0697807324776957	0.0162159413713038
0.09000000000001407	0.1729578294277046	0.0348148428457305	0.18583284741146	0.0448891352873576	0.0925056457490123	0.0348468736095446
0.10000000000001208	0.1836045393492581	0.003785417271196	0.2066913051610058	0.0619334000181657	0.1151367896673495	0.0533222231960412
0.1100000000000172	0.194273277749805	0.0269188672126496	0.2274711250303681	0.079020782049655	0.1376622005291139	0.0716328851692431
0.12000000000001876	0.2049584271196774	0.0572824611690933	0.2481600056628576	0.0961441196884026	0.1600700424399042	0.0897700509630371
0.13000000000002032	0.2156544541576395	0.0872902881893601	0.2687457528925073	0.1132962315700575	0.182348620257375	0.1077252203830904
0.14000000000002188	0.2263559183398546	0.1169277626834217	0.2892162943663332	0.1304699214976143	0.2044863921515458	0.1254902126596778
0.15000000000002345	0.2370574798886445	0.1461808065251887	0.3095596937498384	0.1476579830481143	0.2264719817661101	0.1430571765470229
0.160000000000025	0.2477539071324839	0.1750358645210435	0.3297641644969354	0.1648532039473158	0.248294189966108	0.1604185994461505
0.17000000000002657	0.258440083254782	0.2034799186759405	0.3498180831698921	0.1820483702130069	0.2699420061587227	0.1775673155352357
0.18000000000002814	0.2691110124334965	0.2315005012369336	0.3697100022989963	0.1992362700688746	0.291404619175747	0.1944965128974524
0.1900000000000297	0.2797618253762753	0.2590857064989236	0.389428662775152	0.2164096976323308	0.3126714277081928	0.2111997396408558
0.20000000000003126	0.2903877842567303	0.2862242013606934	0.4089630057711891	0.2335614563806494	0.3337320502858679	0.2276709090098668
0.21000000000003283	0.3009842870595622	0.3129052346222731	0.4283021841906517	0.2506843624013691	0.3545763347974312	0.2439043034926969
0.22000000000003794	0.3115468713434975	0.3391186450182578	0.4474355736452403	0.2677712474335744	0.3751943675490977	0.2598945779340241
0.23000000000003595	0.3220712174329692	0.364854867987041	0.4663527829645655	0.2848149617080628	0.3955764818624115	0.2756367616651224
0.24000000000004107	0.3325531510519373	0.390104941182131	0.4850436642434211	0.3018083765963226	0.41571326621257	0.2911262596654659
0.25000000000004263	0.3429886454145429	0.4148605087383916	0.5034983224326575	0.3187443870802351	0.4355955719090602	0.3063588527707885
0.26000000000004064	0.3533738227890425	0.439113824311046	0.5217071244806473	0.3356159140564615	0.4552145203210572	0.3213306969429262
0.2700000000000422	0.363704955552051	0.4628577529085746	0.5396607080319468	0.3524159064905452	0.4745615096505159	0.3360383216176004
0.28000000000004377	0.3739784667514577	0.486085771543076	0.5573499896893458	0.36913734343665	0.4936282212579985	0.3504786271478406
0.29000000000004533	0.3841909301963661	0.5087919687236575	0.5747661728438181	0.385773235938848	0.5124066255470601	0.3646488813635525
0.30000000000005045	0.3943390700934741	0.5309710428210038	0.5919007550760625	0.4023166288296902	0.5308889874141512	0.3785467152715642
0.31000000000004846	0.4044197602482323	0.5526182993333126	0.6087455351326366	0.4187606024413211	0.5490678712713001	0.3921701179241376
0.32000000000005	0.4144300228491878	0.5737296470848309	0.6252926194798539	0.4350982742435397	0.5669361456493649	0.4055174304864716
0.3300000000000516	0.4243670268523809	0.5943015933885206	0.6415344284391968	0.4513228004225877	0.5844869873904956	0.4185873395355981
0.3400000000000496	0.4342280859819718	0.6143312382042092	0.6574637019085207	0.467427377414317	0.6017138854393036	0.4313788696250617
0.3500000000000547	0.4440106563626663	0.6338162673241625	0.6730735046738795	0.4834052434054109	0.6186106442433954	0.4438913751527317
0.3600000000000527	0.4537123337991532	0.6527549446182497	0.688357231316538	0.4992496798161463	0.6351713867743718	0.4561245315719253
0.37000000000005784	0.4633308507183104	0.6711461033713014	0.7033086107192641	0.514954012778078	0.6513905571807739	0.4680783259882892
0.3800000000000594	0.4728640727897651	0.6889891367454465	0.71792171017456	0.5305116146197979	0.6672629230840406	0.4797530471860859
0.39000000000006096	0.4823099952405678	0.7062839874009731	0.7321909390957074	0.545915905374355	0.6827835775277071	0.4911492751279671
0.40000000000006253	0.4916667388796052	0.7230311363102833	0.7461110523304207	0.5611603543222075	0.6979479405895063	0.5022678699734289
0.4100000000000641	0.5009325458465647	0.7392315908010787	0.7596771530764499	0.5762384815846598	0.7127517606650567	0.5131099606624991
0.42000000000006565	0.5101057751001797	0.7548868718666611	0.7728846953992069	0.5911438597837428	0.7271911154305385	0.5236769331135792
0.43000000000006366	0.5191848976600372	0.7699990007831433	0.7857294863527714	0.6058701157857954	0.7412624124902831	0.5339704180857513
0.4400000000000688	0.528168491615077	0.7845704850744397	0.7982076877065201	0.6204109325468179	0.7549623897135149	0.5439922787562623
0.45000000000007034	0.5370552369126317	0.7986043038665472	0.810315817280155	0.6347600510774494	0.7682881152627524	0.5537445980630465
0.4600000000000719	0.5458439099432566	0.8121038926728219	0.8220507498885502	0.6489112725448706	0.7812369873155353	0.5632296658608877
0.47000000000007347	0.5545333779416193	0.8250731276518831	0.8334097178966886	0.662858460528677	0.793806733479657	0.5724499659381012
0.4800000000000786	0.563122593228812	0.8375163093802375	0.8443903113840366	0.676595543447409	0.8059954099013391	0.5814081629393356
0.49000000000008015	0.5716105873269723	0.8494381461828796	0.854990477918217	0.6901165171726763	0.8178014000645852	0.5901070892389711
0.5000000000000817	0.5799964649793687	0.8608437370672914	0.8652085219395907	0.7034154478476653	0.8292234132787778	0.5985497318084911
0.5100000000000797	0.588279398110348	0.8717385543098499	0.8750431037608442	0.7164864749264253	0.8402604828500236	0.6067392191203999
0.5200000000000813	0.5964586197587936	0.8821284257469723	0.8844932381880276	0.7293238144496016	0.8509119639306802	0.6146788081295714
0.5300000000000793	0.6045334180180816	0.8920195168255931	0.8935582927715425	0.7419217625708764	0.8611775310410837	0.6223718713715344
0.5400000000000844	0.6125031300142629	0.9014183124684676	0.9022379856965828	0.7542746993465934	0.8710571752581932	0.6298218842154528
0.550000000000086	0.6203671359534166	0.9103315988091571	0.9105323833233752	0.7663770927988895	0.8805512010670005	0.6370324123083152
0.5600000000000875	0.6281248532678299	0.918766444850304	0.9184418973875208	0.7782235032607975	0.8896602228713543	0.6440070992453149
0.5700000000000891	0.6357757308896537	0.9267301840972856	0.9259672818698996	0.7898085880099196	0.8983851611619872	0.6507496545004736
0.5800000000000907	0.6433192436805146	0.9342303962179244	0.9331096295445874	0.8011271061960444	0.906727238340528	0.6572638416502415
0.5900000000000922	0.6507548870446208	0.9412748887770556	0.9398703682113048	0.8121739240666813	0.9146879742003468	0.6635534669215893
